<?xml version="1.0" encoding="UTF-8" standalone="yes"?>
<svg xmlns="http://www.w3.org/2000/svg" xmlns:xlink="http://www.w3.org/1999/xlink" viewBox="0 0 50 50" version="1.1" width="50" height="50" fill="#000000">
  <g id="surface1">
    <path style=" " d="M 15.6875 5 C 14.496094 5 13.339844 5.699219 12.75 6.75 L 3.4375 23.25 C 2.847656 24.3125 2.847656 25.6875 3.4375 26.75 L 12.75 43.25 C 13.339844 44.304688 14.496094 45 15.6875 45 L 34.3125 45 C 35.503906 45 36.660156 44.300781 37.25 43.25 L 46.5625 26.75 C 47.152344 25.6875 47.152344 24.3125 46.5625 23.25 L 37.25 6.75 C 36.660156 5.699219 35.503906 5 34.3125 5 Z M 15.6875 7 L 34.3125 7 C 34.785156 7 35.261719 7.292969 35.5 7.71875 L 44.8125 24.21875 C 45.066406 24.675781 45.058594 25.335938 44.8125 25.78125 L 35.5 42.28125 C 35.265625 42.703125 34.785156 43 34.3125 43 L 15.6875 43 C 15.214844 43 14.738281 42.707031 14.5 42.28125 L 5.1875 25.78125 C 4.933594 25.324219 4.941406 24.664063 5.1875 24.21875 L 14.5 7.71875 C 14.734375 7.296875 15.214844 7 15.6875 7 Z M 16.3125 15 C 16.074219 15.050781 15.90625 15.367188 16.03125 15.59375 L 21.09375 25 L 16.03125 34.375 C 15.886719 34.632813 16.097656 35 16.375 35 L 19.4375 35 C 19.582031 34.988281 19.722656 34.910156 19.78125 34.78125 L 24.9375 25.1875 C 24.964844 25.136719 24.988281 25.082031 25 25.03125 C 25.011719 25.082031 25.035156 25.136719 25.0625 25.1875 L 30.21875 34.78125 C 30.285156 34.910156 30.417969 35 30.5625 35 L 33.625 35 C 33.898438 35 34.113281 34.632813 33.96875 34.375 L 28.90625 25 L 33.96875 15.59375 C 34.09375 15.347656 33.890625 15 33.625 15 L 30.5625 15 C 30.417969 15 30.292969 15.089844 30.21875 15.21875 L 25.0625 24.78125 C 25.035156 24.832031 25.011719 24.878906 25 24.9375 C 24.988281 24.878906 24.964844 24.832031 24.9375 24.78125 L 19.78125 15.21875 C 19.714844 15.101563 19.570313 15 19.4375 15 Z "/>
  </g>
</svg>
